<svg height="167.14667" viewBox="0 0 407.07999 167.14667" width="407.07999" xmlns="http://www.w3.org/2000/svg"><path d="m3053.09 365.199v881.491h-138.13v-850.667c0-111.671-12.79-164.054-50.7-207.582-37.15-41.421-89.7-62.382-156.28-62.382-70.99 0-117.55 15.66-155.68 52.371-48.09 45.269-62.03 94.996-62.03 221.605v846.655h-140.8v-892.21c0-124.96 19.29-188.179 76.45-250.531 65.08-72.8904 145.8-103.949 270-103.949 132.34 0 238.9 47.9688 300.02 135.102 38.42 56.359 57.15 131.664 57.15 230.097m-1427.09 404.074c-59.16 70.606-52.31 195.168 14.68 266.577 74.75 79.63 213.49 77.7 214.61 77.73l68.01-.03v140h-65.38c-18.54.34-204.64.31-319.33-121.9-116.19-123.84-125.11-326.732-19.9-452.291 54.16-64.644 110.69-99.597 160.56-130.425 39.4-24.36 73.43-45.403 103.31-78.547 25.76-28.594 101.99-131.153 1.25-250.946-49.3-58.613-153.13-79.421-227.05-79.421h-89.07v-140.0004687h89.07c52.89 0 233.29 9.3203087 334.2 129.3084687 138.04 164.164 83.9 336.813-4.42 434.789-43.26 47.988-89.22 76.406-133.67 103.887-44.84 27.726-87.21 53.918-126.87 101.269m-708.34-761.11284h139.69v1238.52984h-139.69zm-736.922 761.11284c-59.172 70.606-52.308 195.168 14.684 266.577 74.75 79.63 213.488 77.7 214.605 77.73l68.008-.03v140h-65.375c-18.539.34-204.652.31-319.328-121.9-116.1914-123.84-125.125-326.732-19.9062-452.291 54.1642-64.644 110.6952-99.597 160.5622-130.425 39.403-24.36 73.418-45.403 103.313-78.547 25.758-28.594 101.984-131.153 1.25-250.946-49.305-58.613-153.121-79.421-227.051-79.421h-89.0742v-140.0004687h89.0742c52.891 0 233.289 9.3203087 334.199 129.3084687 138.051 164.164 83.903 336.813-4.41 434.789-43.269 47.988-89.226 76.406-133.684 103.887-44.835 27.726-87.195 53.918-126.867 101.269" fill="#fff" transform="matrix(.13333333 0 0 -.13333333 0 167.14667)"/></svg>